<svg xmlns="http://www.w3.org/2000/svg" version="1.1">
<line x1="80" y1="190" x2="140" y2="190" stroke="darkgreen" stroke-width="3"/>
<line x1="80" y1="150" x2="140" y2="150" stroke="darkgreen" stroke-width="3"/>
<line x1="80" y1="310" x2="140" y2="310" stroke="darkgreen" stroke-width="3"/>
<line x1="80" y1="80" x2="80" y2="150" stroke="darkgreen" stroke-width="3"/>
<line x1="100" y1="10" x2="100" y2="30" stroke="darkgreen" stroke-width="3"/>
<line x1="100" y1="170" x2="140" y2="170" stroke="darkgreen" stroke-width="3"/>
<line x1="100" y1="290" x2="140" y2="290" stroke="darkgreen" stroke-width="3"/>
<line x1="100" y1="80" x2="100" y2="170" stroke="darkgreen" stroke-width="3"/>
<line x1="240" y1="140" x2="240" y2="170" stroke="darkgreen" stroke-width="3"/>
<line x1="240" y1="170" x2="240" y2="200" stroke="darkgreen" stroke-width="3"/>
<line x1="220" y1="140" x2="220" y2="170" stroke="darkgreen" stroke-width="3"/>
<line x1="220" y1="170" x2="220" y2="200" stroke="darkgreen" stroke-width="3"/>
<line x1="250" y1="140" x2="250" y2="170" stroke="darkgreen" stroke-width="3"/>
<line x1="250" y1="170" x2="250" y2="200" stroke="darkgreen" stroke-width="3"/>
<line x1="70" y1="170" x2="100" y2="170" stroke="darkgreen" stroke-width="3"/>
<line x1="100" y1="10" x2="130" y2="10" stroke="darkgreen" stroke-width="3"/>
<line x1="280" y1="200" x2="300" y2="200" stroke="darkgreen" stroke-width="3"/>
<line x1="310" y1="200" x2="330" y2="200" stroke="darkgreen" stroke-width="3"/>
<line x1="340" y1="200" x2="360" y2="200" stroke="darkgreen" stroke-width="3"/>
<line x1="340" y1="140" x2="360" y2="140" stroke="darkgreen" stroke-width="3"/>
<line x1="120" y1="270" x2="140" y2="270" stroke="darkgreen" stroke-width="3"/>
<line x1="190" y1="170" x2="210" y2="170" stroke="darkgreen" stroke-width="3"/>
<line x1="190" y1="290" x2="210" y2="290" stroke="darkgreen" stroke-width="3"/>
<line x1="250" y1="140" x2="270" y2="140" stroke="darkgreen" stroke-width="3"/>
<line x1="250" y1="200" x2="270" y2="200" stroke="darkgreen" stroke-width="3"/>
<line x1="220" y1="170" x2="240" y2="170" stroke="darkgreen" stroke-width="3"/>
<line x1="250" y1="170" x2="270" y2="170" stroke="darkgreen" stroke-width="3"/>
<line x1="10" y1="120" x2="10" y2="170" stroke="darkgreen" stroke-width="3"/>
<line x1="10" y1="170" x2="20" y2="170" stroke="darkgreen" stroke-width="3"/>
<line x1="70" y1="190" x2="80" y2="190" stroke="darkgreen" stroke-width="3"/>
<line x1="70" y1="150" x2="80" y2="150" stroke="darkgreen" stroke-width="3"/>
<line x1="280" y1="140" x2="280" y2="200" stroke="darkgreen" stroke-width="3"/>
<line x1="310" y1="140" x2="310" y2="200" stroke="darkgreen" stroke-width="3"/>
<line x1="80" y1="190" x2="80" y2="310" stroke="darkgreen" stroke-width="3"/>
<line x1="100" y1="170" x2="100" y2="290" stroke="darkgreen" stroke-width="3"/>
<line x1="340" y1="140" x2="340" y2="200" stroke="darkgreen" stroke-width="3"/>
<line x1="360" y1="140" x2="360" y2="200" stroke="darkgreen" stroke-width="3"/>
<line x1="120" y1="80" x2="120" y2="270" stroke="darkgreen" stroke-width="3"/>
<g transform="translate(190 170) rotate(0 0 0)">
<path
	       d="m -50.499892,24.999927 c 25.000001,0 50.00000048,0 50.00000048,-25.000000300012 C -0.49989152,-25.000075 -25.499891,-25.000075 -50.499892,-25.000075 c -0.0393,0.26172 0,50.000002 0,50.000002 z"
	       style="fill:none;fill-rule:evenodd;stroke:#000000;stroke-width:3px;stroke-linecap:butt;stroke-linejoin:miter;stroke-opacity:1" />
</g>
<g transform="translate(100 30) rotate(-90 0 0)">
<path
	       d="m -50.499892,24.999927 c 25.000001,0 50.00000048,0 50.00000048,-25.000000300012 C -0.49989152,-25.000075 -25.499891,-25.000075 -50.499892,-25.000075 c -0.0393,0.26172 0,50.000002 0,50.000002 z"
	       style="fill:none;fill-rule:evenodd;stroke:#000000;stroke-width:3px;stroke-linecap:butt;stroke-linejoin:miter;stroke-opacity:1" />
</g>
<g transform="translate(20 170) rotate(180 0 0)">
<path
	       d="m -50.499892,24.999927 c 25.000001,0 50.00000048,0 50.00000048,-25.000000300012 C -0.49989152,-25.000075 -25.499891,-25.000075 -50.499892,-25.000075 c -0.0393,0.26172 0,50.000002 0,50.000002 z"
	       style="fill:none;fill-rule:evenodd;stroke:#000000;stroke-width:3px;stroke-linecap:butt;stroke-linejoin:miter;stroke-opacity:1" />
</g>
<g transform="translate(190 290) rotate(0 0 0)">
<path
	       d="M -50.499892,24.999927 C -39,25.362205 -0.49989152,12.362205 -0.49989152,-7.3300012e-5 -0.49989152,-11.738119 -39,-25.637795 -50.499892,-25.000075 c 13.499892,28.3622797 0,50.000002 0,50.000002 z"
	       style="fill:none;fill-rule:evenodd;stroke:#000000;stroke-width:3px;stroke-linecap:butt;stroke-linejoin:miter;stroke-opacity:1" />
</g>
<circle cx="80" cy="190" r="3.5" fill="darkgreen"/>
<circle cx="80" cy="310" r="1.5" fill="darkgreen"/>
<circle cx="80" cy="150" r="3.5" fill="darkgreen"/>
<circle cx="10" cy="170" r="1.5" fill="darkgreen"/>
<circle cx="100" cy="290" r="1.5" fill="darkgreen"/>
<circle cx="100" cy="10" r="1.5" fill="darkgreen"/>
<circle cx="100" cy="170" r="3.5" fill="darkgreen"/>
<circle cx="280" cy="200" r="1.5" fill="darkgreen"/>
<circle cx="310" cy="200" r="1.5" fill="darkgreen"/>
<circle cx="220" cy="170" r="3.5" fill="darkgreen"/>
<circle cx="120" cy="270" r="1.5" fill="darkgreen"/>
<circle cx="240" cy="170" r="3.5" fill="darkgreen"/>
<circle cx="250" cy="140" r="1.5" fill="darkgreen"/>
<circle cx="250" cy="170" r="3.5" fill="darkgreen"/>
<circle cx="250" cy="200" r="1.5" fill="darkgreen"/>
<circle cx="340" cy="200" r="1.5" fill="darkgreen"/>
<circle cx="340" cy="140" r="1.5" fill="darkgreen"/>
<circle cx="360" cy="200" r="1.5" fill="darkgreen"/>
<circle cx="360" cy="140" r="1.5" fill="darkgreen"/>
</svg>
